<svg width="1939" height="1688" viewBox="0 0 1939 1688" fill="none" xmlns="http://www.w3.org/2000/svg">
<path d="M1569.5 1430.68C1693.02 1430.68 1942.11 1546.82 1937.5 1687.5" stroke="black" stroke-width="1.5"/>
<path d="M710.5 250.655C850.333 257.155 1134.4 314.755 1152 493.155C1169.6 671.555 1257 654.025 1321 654.525" stroke="black" stroke-width="1.5"/>
<path d="M1580.5 655.155C1612.5 684.989 1673 775.255 1659 897.655C1641.5 1050.66 1470.5 1133.66 1313.5 1138.16C1187.9 1141.76 891.167 1091.66 758.5 1066.16" stroke="black" stroke-width="1.5"/>
<path d="M376 1066.16C326.5 1073.99 145 1066.16 145 1283.66C145 1402.16 831.437 1745.71 1042.5 1604.5C1254 1463 1243.5 1431 1345.5 1431" stroke="black" stroke-width="1.5"/>
<path d="M372.5 251.235C279.5 251.235 83.4 223.555 1 1.15527" stroke="black" stroke-width="1.5"/>
<path d="M371.5 251.23H631.446" stroke="black" stroke-width="1.5"/>
<path d="M371.5 251.23H631.446" stroke="black" stroke-width="1.5"/>
<path d="M627.554 251.23H711.887" stroke="black" stroke-width="1.5"/>
<path d="M1321 655L1581 655" stroke="black" stroke-width="1.5"/>
<path d="M376 1066H760" stroke="black" stroke-width="1.5"/>
<path d="M1324.75 1430.85H1578.24" stroke="black" stroke-width="1.5" stroke-linecap="round" stroke-linejoin="round"/>
</svg>
